PathFileType	4	(X/Y/Z)	D:\TRACE\spotREDO_2-26-24\spot_justArm_Motion_2_1-v60.trc
DataRate	CameraRate	NumFrames	NumMarkers	Units	OrigDataRate	OrigDataStartFrame	OrigNumFrames
100.00	100.00	      20	9	mm	100.00	1751	      7000
Frame#	Time	front left toe			Front right toe			aft left toe			aft right toe			Arm			FL body			FR body			AL Body			AR Body			
		X1	Y1	Z1	X2	Y2	Z2	X3	Y3	Z3	X4	Y4	Z4	X5	Y5	Z5	X6	Y6	Z6	X7	Y7	Z7	X8	Y8	Z8	X9	Y9	Z9	

1751	17.500	-200.21127	10.88212	-195.61852	227.43701	16.45364	-123.94871	-305.91763	36.27353	421.13126	121.53465	43.25629	430.00946	-88.02955	588.89459	-829.74176	-64.10147	518.70642	-240.23787	89.28387	522.83130	-215.63628	-214.70959	607.71045	626.08447	-68.15352	607.50116	652.31567	
1752	17.510	-199.03340	11.33626	-195.23752	228.35699	16.01811	-123.96954	-305.18979	35.59178	421.25064	122.86996	42.27614	430.46210	-86.80306	590.74695	-829.28143	-62.49559	519.34619	-240.23366	91.18932	523.32855	-215.05664	-214.04703	606.56781	626.29407	-67.77251	606.27222	652.59064	
1753	17.520	-197.72282	11.99823	-195.07253	229.66031	15.42420	-124.12708	-304.10327	34.64355	421.67682	123.79340	41.66536	430.82632	-86.10097	592.69977	-829.43488	-60.16930	519.78265	-239.84308	92.60161	523.96729	-214.78764	-214.04410	605.56744	626.39655	-67.63879	605.32178	652.88330	
1754	17.530	-196.50185	12.49103	-194.88864	231.04482	16.62432	-122.93398	-302.83044	33.58482	421.89023	124.77356	40.68451	431.02414	-85.56393	594.21423	-829.17810	-58.67991	520.33258	-239.82076	94.33365	524.52338	-214.35719	-213.39120	604.52661	626.49750	-66.66927	604.30682	653.55554	
1755	17.540	-195.41208	13.19199	-194.47069	231.81506	16.76864	-122.63512	-301.66147	32.78368	422.00232	126.16636	39.75220	431.52069	-85.32707	595.64276	-828.88031	-56.93921	521.27106	-239.63457	96.09413	525.09955	-213.95703	-212.43163	603.54657	626.54980	-66.00752	603.16449	653.61096	
1756	17.550	-194.20862	13.62096	-194.00761	233.18211	17.19038	-122.38131	-300.74176	32.07769	422.52191	126.89150	38.97628	431.72672	-85.44695	596.77417	-828.44287	-55.35392	521.65308	-239.27756	97.77565	525.72058	-213.56514	-211.56993	602.69556	626.90192	-65.30801	602.35913	653.80743	
1757	17.560	-192.95097	13.91486	-194.04132	234.20850	18.10728	-121.65874	-299.27365	31.18806	422.85516	128.65649	38.23100	432.17859	-85.43087	597.47797	-828.16797	-54.07916	522.62225	-239.02606	99.24421	526.42236	-213.34375	-210.26306	601.76227	627.23846	-64.09119	601.09479	654.11334	
1758	17.570	-192.25012	14.45316	-193.82446	235.40672	18.54733	-121.41676	-298.27191	30.52627	423.00909	129.17755	36.98939	432.58511	-85.71476	598.27173	-827.43793	-52.68878	523.20972	-238.87202	100.60165	526.81012	-213.05910	-209.10612	600.84814	627.44818	-62.24672	600.36377	654.98322	
1759	17.580	-190.96236	15.04437	-193.53841	236.47067	18.26473	-121.44834	-297.07050	29.58635	423.50595	131.04146	36.49726	432.93402	-86.25122	598.65985	-826.94983	-51.20115	523.64862	-238.63579	101.86559	527.15125	-212.94310	-207.32846	600.07593	627.80109	-60.96196	599.36066	655.02606	
1760	17.590	-189.74089	15.30871	-193.08315	237.56570	18.98169	-120.85808	-295.95172	28.81291	423.78799	131.62625	35.16301	433.07339	-87.04912	599.23450	-826.79431	-49.96468	523.94006	-238.46089	103.22207	527.59753	-212.75159	-205.63231	599.43909	628.22961	-59.32497	598.69055	655.18011	
1761	17.600	-188.73221	15.77786	-192.67419	238.38753	18.84057	-120.97508	-294.65323	27.90180	424.07739	133.21272	34.32149	433.51736	-87.36497	599.27563	-826.47717	-48.55788	524.16071	-238.28448	104.25943	527.92590	-212.83867	-203.87827	598.83807	628.61658	-57.37722	597.98236	655.45782	
1762	17.610	-187.95169	16.41338	-192.07932	240.00214	19.43896	-120.57677	-293.41037	27.15293	424.61328	133.99628	33.33988	433.68082	-87.81909	599.48560	-826.05615	-47.66607	524.44971	-237.88615	105.24445	528.14337	-212.85513	-201.85773	598.19727	629.21082	-55.35524	597.34412	655.84222	
1763	17.620	-186.72050	16.63028	-191.91472	240.85165	20.15009	-120.18682	-292.20471	26.43495	424.99362	135.51135	32.35448	433.96942	-88.04910	599.46350	-825.64056	-46.48357	524.68591	-237.71741	106.38544	528.27130	-212.63789	-199.79727	597.67194	629.73242	-53.56849	596.59131	656.01221	
1764	17.630	-185.80313	17.10812	-191.60713	241.80400	20.07106	-120.12309	-291.25211	25.72561	425.34149	136.67348	31.40655	434.32550	-88.02941	599.32825	-825.27350	-46.04727	524.89398	-237.50745	107.05306	528.83759	-212.80096	-197.65465	597.09521	630.22607	-51.43441	596.05139	656.48553	
1765	17.640	-184.93370	17.44201	-191.17529	242.80945	20.86679	-119.55520	-289.80173	24.60854	425.42615	137.92348	30.24792	434.46542	-85.32929	599.18597	-822.99036	-45.30148	525.38147	-237.33186	108.30540	529.00568	-212.76175	-195.80759	596.52075	630.60034	-49.26125	595.26245	656.77191	
1766	17.650	-183.44006	17.92899	-190.65054	243.53366	20.72752	-119.68165	-288.60666	23.58466	425.69577	139.23085	29.50500	434.88580	-87.14839	598.79218	-824.55865	-43.78173	525.45148	-236.88048	109.10731	529.17621	-212.68300	-193.81873	595.74072	631.14124	-46.91038	594.71576	657.45221	
1767	17.660	-182.60576	18.80604	-190.30936	244.94687	21.15739	-119.26530	-287.64136	22.77439	426.08069	140.48755	28.72110	435.14636	-86.32637	598.63177	-824.65570	-43.13594	525.55280	-236.84109	110.25742	529.11951	-212.53726	-192.05923	595.13818	631.56189	-45.13616	593.96826	657.49683	
1768	17.670	-181.53198	18.69853	-190.25456	246.17970	22.05026	-118.72374	-286.66333	21.77285	426.97513	141.61961	27.20302	435.52383	-85.21718	598.69171	-824.76508	-42.61958	525.54431	-236.78595	111.03272	529.07800	-212.47472	-189.76363	594.38416	632.18439	-43.26658	593.40045	657.63940	
1769	17.680	-180.36740	19.35297	-189.49951	246.84656	21.85786	-118.67859	-285.55075	21.25462	427.14966	142.20889	26.35993	435.68616	-83.25520	599.02557	-824.61603	-41.62160	525.25024	-236.40021	111.90427	528.77106	-212.41316	-188.06059	593.81879	632.59491	-41.30191	592.79120	658.07886	
1770	17.690	-179.51254	19.62817	-189.03960	248.13226	22.26193	-118.18497	-284.54807	20.39092	427.62704	143.80684	25.74144	436.06836	-81.02341	599.67889	-825.17627	-40.93631	524.77032	-235.95129	112.41393	528.16071	-212.47498	-186.23463	593.32819	633.10919	-39.54677	592.21893	658.15778	
